#!OML:ASF F:\VICON\USERDATA\INSTALL\rory3\rory3.ASF
:FULLY-SPECIFIED
:DEGREES
76
root -4.79478 16.3781 15.713 216.494 -5.23255 -180.29
lowerback 6.55472 4.6766 8.04298
upperback -0.813051 6.47932 6.19789
thorax -4.33477 2.78269 1.36859
lowerneck -9.90569 -10.7764 -14.7186
upperneck 17.4065 -15.569 11.6033
head 9.1536 -7.48567 4.38736
rclavicle 9.85972e-014 6.99722e-014
rhumerus 21.7681 -0.116062 -50.9694
rradius 23.5301
rwrist 24.6435
rhand -29.4153 -57.3577
rfingers 7.12502
rthumb -2.75282 -87.3197
lclavicle 9.85972e-014 6.99722e-014
lhumerus 3.75636 15.3179 -16.5332
lradius 31.7481
lwrist 14.2432
lhand -41.9979 -44.8949
lfingers 7.12502
lthumb -14.8931 -15.4502
rfemur -74.8217 -3.22569 22.7697
rtibia 47.3698
rfoot -9.14683 -17.1502
rtoes 1.81777
lfemur -39.9634 -9.92344 -13.983
ltibia 37.6506
lfoot -37.5772 34.8173
ltoes 1.67124
77
root -4.7632 16.3515 15.6293 217.349 -4.91298 -180.3
lowerback 6.6756 4.62059 8.17581
upperback -0.614127 6.38414 6.36451
thorax -4.19953 2.72774 1.47751
lowerneck -10.806 -10.8376 -14.6553
upperneck 17.5497 -15.5084 11.5726
head 9.35159 -7.40443 4.33165
rclavicle -6.67916e-014 -9.54166e-014
rhumerus 22.4715 -0.0718591 -51.1259
rradius 23.4754
rwrist 24.5202
rhand -29.9567 -57.3025
rfingers 7.12502
rthumb -3.27569 -87.2571
lclavicle -6.67916e-014 -9.54166e-014
lhumerus 5.08295 15.2044 -16.7369
lradius 31.8126
lwrist 14.1689
lhand -42.7079 -43.9781
lfingers 7.12502
lthumb -15.5771 -14.5854
rfemur -75.7288 -3.05255 22.8986
rtibia 47.8347
rfoot -9.46499 -16.7415
rtoes 2.83587
lfemur -40.5354 -10.4055 -13.6476
ltibia 37.6477
lfoot -38.2385 35.5028
ltoes 1.56047
78
root -4.73168 16.3218 15.5446 218.151 -4.54399 -180.252
lowerback 6.9614 4.61162 8.36949
upperback -0.514596 6.38826 6.49371
thorax -4.24841 2.71195 1.49084
lowerneck -11.1994 -10.863 -14.6271
upperneck 17.4229 -15.4616 11.6497
head 9.37842 -7.34829 4.34282
rclavicle -3.18055e-014 3.49861e-014
rhumerus 22.8579 0.161229 -51.177
rradius 23.5917
rwrist 23.8957
rhand -30.391 -57.5517
rfingers 7.12502
rthumb -3.69502 -87.4994
lclavicle -3.18055e-014 3.49861e-014
lhumerus 6.87693 15.1718 -16.7989
lradius 31.4532
lwrist 13.7711
lhand -43.682 -45.106
lfingers 7.12502
lthumb -16.5151 -15.7888
rfemur -76.6257 -2.91576 23.1763
rtibia 48.3439
rfoot -9.79169 -16.2397
rtoes 3.42201
lfemur -41.0007 -10.8451 -13.2808
ltibia 37.5775
lfoot -39.0362 36.0972
ltoes 1.86663
79
root -4.69311 16.2883 15.4589 218.988 -4.1916 -180.268
lowerback 7.27284 4.61243 8.39554
upperback -0.470109 6.40484 6.65706
thorax -4.39217 2.70328 1.62542
lowerneck -11.3266 -10.8466 -14.5563
upperneck 17.0227 -15.3163 11.5759
head 9.23165 -7.26807 4.326
rclavicle 3.18055e-014 3.49861e-014
rhumerus 23.1778 0.434495 -51.0924
rradius 23.745
rwrist 23.303
rhand -30.5762 -58.0849
rfingers 7.12502
rthumb -3.87393 -88.0295
lclavicle 3.18055e-014 3.49861e-014
lhumerus 8.42749 15.2696 -16.7094
lradius 31.3488
lwrist 13.2493
lhand -43.636 -47.3644
lfingers 7.12502
lthumb -16.4708 -18.0436
rfemur -77.5733 -2.66977 23.2595
rtibia 48.8562
rfoot -10.194 -15.8484
rtoes 4.69685
lfemur -41.5235 -11.16 -12.9767
ltibia 37.5666
lfoot -39.7715 36.5424
ltoes 2.25404
80
root -4.65539 16.2434 15.3787 220.028 -3.8996 -180.119
lowerback 7.41664 4.63686 8.55848
upperback -0.46872 6.43305 6.88127
thorax -4.47794 2.69162 1.76156
lowerneck -11.6043 -10.8109 -14.5833
upperneck 16.6694 -15.123 11.5794
head 9.13739 -7.15798 4.35103
rclavicle -3.49861e-014 -5.40694e-014
rhumerus 23.7172 0.443169 -51.1276
rradius 23.8281
rwrist 23.767
rhand -29.5127 -59.1969
rfingers 7.12502
rthumb -2.84685 -89.1576
lclavicle -3.49861e-014 -5.40694e-014
lhumerus 9.33732 15.5638 -16.5381
lradius 31.8184
lwrist 12.5038
lhand -43.2083 -48.7966
lfingers 7.12502
lthumb -16.059 -19.4421
rfemur -78.8293 -2.23733 23.3937
rtibia 49.4661
rfoot -10.3857 -15.6161
rtoes 5.53248
lfemur -42.3344 -11.648 -12.3311
ltibia 37.5842
lfoot -40.5812 37.1582
ltoes 2.53287
81
root -4.61442 16.2085 15.2947 220.926 -3.47242 -180.247
lowerback 7.7926 4.59157 8.39583
upperback -0.43615 6.39236 7.03184
thorax -4.69236 2.66152 1.98554
lowerneck -11.7285 -10.7226 -14.6023
upperneck 16.1896 -14.8956 11.7268
head 8.97954 -7.02726 4.43736
rclavicle -6.04305e-014 6.99722e-014
rhumerus 24.3425 0.701955 -51.1358
rradius 23.8043
rwrist 23.6547
rhand -29.4923 -59.2939
rfingers 7.12502
rthumb -2.82715 -89.2549
lclavicle -6.04305e-014 6.99722e-014
lhumerus 11.075 15.4871 -16.618
lradius 31.4656
lwrist 11.8259
lhand -42.8491 -49.5421
lfingers 7.12502
lthumb -15.713 -20.16
rfemur -79.9571 -1.99479 23.3314
rtibia 50.0931
rfoot -10.4271 -15.3986
rtoes 5.82258
lfemur -42.9357 -12.3382 -11.981
ltibia 37.5864
lfoot -41.639 37.7162
ltoes 2.92779
